<svg width="33" height="32" viewBox="0 0 33 32" fill="none" xmlns="http://www.w3.org/2000/svg">
<g clip-path="url(#clip0_4578_563)">
<path d="M7.64895 12.2848C7.04092 12.2848 6.54816 12.7775 6.54816 13.3856C6.54816 13.9936 7.04092 14.4886 7.64895 14.4886C8.25699 14.4886 8.74975 13.9959 8.74975 13.3856C8.74975 12.7753 8.25699 12.2848 7.64895 12.2848Z" fill="#373B41"/>
<path d="M18.5326 12.1698C17.8771 12.1698 17.3459 12.701 17.3459 13.3565C17.3459 14.012 17.8771 14.5432 18.5326 14.5432C19.1881 14.5432 19.7193 14.012 19.7193 13.3565C19.7193 12.701 19.1881 12.1698 18.5326 12.1698Z" fill="#373B41"/>
<path d="M28.3856 1.33337H4.94782C2.58348 1.33337 0.666687 3.25016 0.666687 5.61451V19.5248C0.666687 21.8891 2.58348 23.8059 4.94782 23.8059H13.2253L16.0417 30.4401C16.0417 30.4401 16.2361 31.0142 16.704 31.0142C17.1741 31.0142 17.3663 30.4401 17.3663 30.4401L20.1827 23.8059H28.3856C30.7499 23.8059 32.6667 21.8891 32.6667 19.5248V5.61451C32.6667 3.25016 30.7499 1.33337 28.3856 1.33337ZM10.7185 13.6298C10.705 16.1727 8.07617 16.245 8.07617 16.245C7.059 16.245 6.48487 15.5714 6.48487 15.5714V16.0303H4.57034V8.13255C4.57034 8.13255 4.5613 8.13029 4.57034 8.12803V8.13255C4.69014 8.15064 6.48487 8.12803 6.48487 8.12803V11.1479C6.93468 10.3794 8.23665 10.3929 8.23665 10.3929C11.0712 10.6574 10.7163 13.6298 10.7163 13.6298H10.7185ZM14.0887 10.637V16.0438H12.2149V10.6913C12.2149 9.96345 11.3107 9.76002 11.3107 9.76002V7.87261C14.3035 7.99467 14.0887 10.637 14.0887 10.637ZM18.5304 16.2495C16.7944 16.2495 15.3884 14.9543 15.3884 13.3585C15.3884 11.7627 16.7944 10.4675 18.5304 10.4675C20.2663 10.4675 21.6723 11.7627 21.6723 13.3585C21.6723 14.9543 20.2663 16.2495 18.5304 16.2495ZM28.7969 16.2495C28.7969 16.2495 28.8241 18.9959 26.0325 18.9959H25.1826V17.217H25.6957C25.6957 17.217 26.8688 17.3255 26.8553 15.5172C26.8553 15.5172 26.627 16.2495 24.9814 16.2495C24.9814 16.2495 22.6487 16.0823 22.6487 13.8061V12.9426C22.6487 12.9426 22.703 10.5828 25.264 10.3952C25.264 10.3952 26.2744 10.2867 26.896 11.123V10.5444H28.7969V16.2518V16.2495Z" fill="#373B41"/>
<path d="M25.82 12.1965C25.1803 12.1965 24.6605 12.7164 24.6605 13.3561C24.6605 13.9958 25.1803 14.5157 25.82 14.5157C26.4597 14.5157 26.9796 13.9958 26.9796 13.3561C26.9796 12.7164 26.4597 12.1965 25.82 12.1965Z" fill="#373B41"/>
</g>
<defs>
<clipPath id="clip0_4578_563">
<rect width="32" height="32" fill="white" transform="translate(0.666687)"/>
</clipPath>
</defs>
</svg>
