<svg xmlns="http://www.w3.org/2000/svg" width="62" height="40" fill="none" viewBox="0 0 62 40">
    <g clip-path="url(#clip0)">
        <path fill="#fff" d="M61.697 39.698H.303V.302h61.394v39.396z"/>
        <path fill="#000" d="M61.999 40H0V0h61.999v40zM.605 39.395h60.789V.605H.604v38.79z"/>
        <path fill="#fff" d="M50.652 9.53c.035-.112.151-.185.264-.15.115.034.18.153.148.266-.035.114-.166.179-.279.147"/>
        <path fill="#000" d="M50.652 9.53c.035-.112.151-.185.264-.15.115.034.18.153.148.266-.035.114-.166.179-.279.147"/>
        <path stroke="#000" stroke-width=".177" d="M50.652 9.53c.035-.112.151-.185.264-.15.115.034.18.153.148.266-.035.114-.166.179-.279.147"/>
        <path fill="#000" d="M50.996 9.275c-.119 0-.216-.097-.216-.214 0-.119.097-.215.216-.215s.216.096.216.215c-.002.12-.097.214-.216.214z"/>
        <path stroke="#000" stroke-width=".177" d="M50.996 9.275c-.119 0-.216-.097-.216-.214 0-.119.097-.215.216-.215s.216.096.216.215c-.002.12-.097.214-.216.214z"/>
        <path fill="#fff" d="M50.98 8.698c-.119 0-.215-.096-.215-.215 0-.12.096-.216.215-.216.12 0 .216.097.216.216-.002.119-.097.215-.216.215z"/>
        <path fill="#000" d="M50.98 8.698c-.119 0-.215-.096-.215-.215 0-.12.096-.216.215-.216.12 0 .216.097.216.216-.002.119-.097.215-.216.215z"/>
        <path stroke="#000" stroke-width=".177" d="M50.98 8.698c-.119 0-.215-.096-.215-.215 0-.12.096-.216.215-.216.12 0 .216.097.216.216-.002.119-.097.215-.216.215z"/>
        <path fill="#fff" d="M50.774 8.176c-.119 0-.215-.097-.215-.216s.096-.213.215-.213c.12 0 .216.096.216.213 0 .12-.097.216-.216.216z"/>
        <path fill="#000" d="M50.774 8.176c-.119 0-.215-.097-.215-.216s.096-.213.215-.213c.12 0 .216.096.216.213 0 .12-.097.216-.216.216z"/>
        <path stroke="#000" stroke-width=".177" d="M50.774 8.176c-.119 0-.215-.097-.215-.216s.096-.213.215-.213c.12 0 .216.096.216.213 0 .12-.097.216-.216.216z"/>
        <path fill="#000" d="M43.867 14.153v4.187l2.925 3.27 5.794-8.604-.059-3.155-5.735 8.144-2.925-3.842zM41.055 24.367c0-.447.008-.67.008-.97 0-.439-.008-.717-.016-.854.11.012.228.022.34.022.111 0 .228-.008.341-.022-.054.54-.058.972-.058 1.451 0 1.012.29 1.178.828 1.178.663 0 .71-.718.71-1.49 0-.381-.012-.76-.034-1.14.07.011.14.021.211.021.07 0 .137-.008.208-.022-.024.244-.055.839-.055 1.556 0 .964-.419 1.361-1.223 1.361-.71.002-1.26-.31-1.26-1.09zM45.682 24.103c0 .597 0 1.042.033 1.302-.091-.008-.204-.02-.341-.02-.137 0-.248.012-.34.02.023-.364.034-.685.034-1.149v-.564c0-.464-.009-.784-.035-1.15.09.009.204.023.34.023.138 0 .249-.012.342-.022-.033.222-.033.788-.033 1.324.373-.44.913-1.11 1.059-1.324.078.008.153.022.231.022.075 0 .154-.012.248-.022-.185.187-.854.925-1.07 1.195.357.54.91 1.373 1.133 1.667-.161-.008-.282-.02-.401-.02-.121 0-.24.012-.361.02-.274-.435-.556-.87-.83-1.302h-.009zM50.806 25.405c-.133-.008-.25-.02-.365-.02-.117 0-.236.012-.352.02-.087-.282-.182-.568-.287-.85-.177-.004-.353-.008-.53-.008-.145 0-.286.004-.431.008-.111.282-.204.564-.283.85-.066-.008-.129-.02-.195-.02-.067 0-.13.012-.208.02.204-.46.825-1.937 1.181-2.882.055.008.105.02.16.02.054 0 .103-.012.157-.02.353.945.839 2.205 1.153 2.882zm-1.098-1.094c-.121-.337-.236-.663-.37-.988-.14.325-.27.651-.389.988h.759zM53.288 23.104c-.087-.236-.25-.357-.502-.357-.254 0-.431.175-.431.373 0 .614 1.262.46 1.262 1.403 0 .556-.44.937-1.1.937-.298 0-.546-.087-.666-.177.054-.192.09-.341.12-.527h.08c.043.24.235.448.572.448.324 0 .486-.192.486-.423 0-.627-1.236-.46-1.236-1.403 0-.573.44-.887.933-.887.298 0 .522.078.681.203-.05.13-.078.228-.133.412h-.066v-.003zM39.87 26.875c-.049.343-.069.687-.09 1.03-.037-.006-.074-.012-.108-.012-.036 0-.07.004-.107.012.095-.522.17-1.044.234-1.566.032.006.06.012.093.012.03 0 .06-.004.09-.012.166.36.36.766.525 1.084.18-.338.365-.723.528-1.084.032.006.067.012.097.012s.062-.004.095-.012c.058.522.139 1.245.195 1.566-.06-.006-.123-.012-.183-.012s-.125.004-.188.012c-.016-.317-.054-.702-.09-1.054h-.005c-.169.352-.338.701-.502 1.054-.014-.002-.03-.004-.042-.004-.014 0-.03.002-.042.004-.161-.343-.325-.688-.496-1.03h-.004zM42.957 27.905c-.072-.004-.137-.012-.2-.012-.064 0-.128.006-.193.012-.048-.155-.099-.31-.157-.466-.097-.002-.194-.004-.29-.004-.079 0-.158.002-.236.004-.06.156-.111.309-.155.466-.037-.004-.071-.012-.107-.012-.036 0-.07.006-.113.012.11-.252.451-1.06.647-1.578.03.004.056.012.087.012.03 0 .056-.006.086-.012.192.518.458 1.207.631 1.578zm-.602-.599c-.067-.183-.13-.363-.202-.54-.077.177-.147.357-.214.54h.416zM43.164 26.339c.034.006.069.012.103.012.034 0 .068-.004.103-.012.326.36.65.72.985 1.08 0-.36 0-.98-.016-1.08.035.006.069.012.103.012.034 0 .069-.004.103-.012-.036.66-.036.963-.036 1.566-.033-.006-.06-.012-.093-.012-.032 0-.06.004-.089.012-.31-.367-.643-.736-.992-1.103-.004.17-.004.36-.004.528 0 .363.006.49.014.575-.036-.006-.072-.012-.106-.012-.035 0-.07.004-.105.012.012-.067.046-.651.046-1.115-.006-.203-.014-.342-.016-.451zM46.127 27.905c-.072-.004-.137-.012-.2-.012-.064 0-.128.006-.193.012-.046-.155-.099-.31-.157-.466-.097-.002-.194-.004-.29-.004-.079 0-.158.002-.236.004-.063.156-.111.309-.156.466-.036-.004-.07-.012-.106-.012-.037 0-.07.006-.113.012.11-.252.451-1.06.647-1.578.03.004.056.012.087.012.03 0 .056-.006.086-.012.194.518.458 1.207.631 1.578zm-.6-.599c-.067-.183-.13-.363-.202-.54-.077.177-.147.357-.214.54h.416zM47.525 26.677c-.095-.137-.24-.227-.448-.227-.282 0-.572.233-.572.711 0 .361.201.633.552.633.077 0 .212-.016.248-.04.006-.036.006-.093.006-.16 0-.245-.014-.346-.016-.39.03.004.075.012.167.012.11 0 .156-.006.184-.012-.012.048-.018.235-.018.38 0 .095.002.216.006.25-.198.057-.407.101-.607.101-.522 0-.897-.298-.897-.76 0-.576.407-.864.94-.864.23 0 .382.05.545.137-.024.076-.05.155-.064.231h-.026v-.002zM47.94 26.968c0-.254-.004-.43-.018-.63.133.003.27.013.403.013.224 0 .413-.004.476-.012-.004.026-.01.054-.01.094 0 .049.004.069.01.103-.174-.012-.446-.028-.514-.028-.012.165-.012.329-.012.496.197-.004.342-.01.516-.018-.008.052-.012.072-.012.102 0 .025.004.047.012.093-.174-.014-.343-.02-.516-.02l-.002.29c0 .095.002.194.006.285.17 0 .344-.009.52-.03-.004.032-.01.054-.01.102 0 .049.004.07.01.097-.083-.002-.19-.012-.397-.012-.371 0-.432.006-.482.012.014-.2.018-.375.018-.629v-.308h.002zM49.245 26.875c-.049.343-.069.687-.09 1.03-.037-.006-.074-.012-.108-.012-.036 0-.07.004-.107.012.095-.522.17-1.044.234-1.566.032.006.063.012.093.012.028 0 .06-.004.09-.012.166.36.36.766.525 1.084.18-.338.365-.723.528-1.084.032.006.067.012.097.012.032 0 .064-.004.095-.012.058.522.139 1.245.195 1.566-.06-.006-.123-.012-.183-.012s-.125.004-.19.012c-.016-.317-.054-.702-.09-1.054h-.005c-.169.352-.338.701-.502 1.054-.014-.002-.03-.004-.042-.004-.014 0-.03.002-.042.004-.162-.343-.325-.688-.494-1.03h-.004zM51.029 26.968c0-.254-.004-.43-.018-.63.133.003.27.013.403.013.222 0 .413-.004.474-.012-.004.026-.008.054-.008.094 0 .049.004.069.008.103-.174-.012-.446-.028-.514-.028-.012.165-.012.329-.012.496.197-.004.342-.01.516-.018-.01.052-.012.072-.012.102 0 .025.004.047.012.093-.174-.014-.343-.02-.516-.02l-.002.29c0 .095.002.194.006.285.171 0 .344-.009.52-.03-.004.032-.008.054-.008.102 0 .049.004.07.008.097-.083-.002-.188-.012-.397-.012-.371 0-.432.006-.482.012.014-.2.018-.375.018-.629v-.308h.004zM52.16 26.339c.034.006.069.012.103.012.034 0 .069-.004.103-.012.326.36.65.72.986 1.08 0-.36 0-.98-.017-1.08.035.006.069.012.103.012.034 0 .069-.004.103-.012-.036.66-.036.963-.036 1.566-.033-.006-.06-.012-.093-.012-.032 0-.06.004-.089.012-.31-.367-.643-.736-.992-1.103-.004.17-.004.36-.004.528 0 .363.007.49.015.575-.037-.006-.073-.012-.107-.012-.035 0-.07.004-.105.012.012-.067.046-.651.046-1.115-.006-.203-.014-.342-.016-.451zM54.153 26.708c0-.087 0-.168-.006-.2-.089 0-.28.014-.416.03.006-.034.012-.066.012-.1 0-.035-.004-.067-.012-.101.206.006.309.012.591.012s.383-.004.577-.012c-.008.034-.013.066-.013.1 0 .035.005.067.013.101-.123-.016-.315-.03-.406-.03-.004.032-.004.113-.004.2v.568c0 .254.004.43.019.63-.05-.005-.111-.013-.186-.013s-.137.006-.185.012c.014-.2.018-.375.018-.629v-.568h-.002zM43.652 28.701c-.048-.129-.137-.195-.274-.195-.139 0-.236.095-.236.203 0 .337.69.252.69.768 0 .305-.24.514-.6.514-.164 0-.301-.048-.366-.098.03-.105.05-.186.067-.289h.042c.024.131.13.246.314.246.178 0 .267-.105.267-.232 0-.342-.678-.252-.678-.767 0-.313.24-.486.51-.486.164 0 .287.042.373.11-.026.071-.042.125-.072.226h-.037zM44.685 29.076c.123-.173.244-.46.343-.681.034.004.069.012.105.012.036 0 .07-.006.109-.012-.101.17-.329.582-.474.869 0 .072-.004.147-.004.221 0 .15.002.305.022.474-.062-.004-.129-.012-.193-.012-.065 0-.13.006-.194.012.006-.145.026-.298.026-.437 0-.07-.002-.141-.004-.212-.157-.302-.415-.788-.486-.917.07.004.138.012.204.012.069 0 .135-.006.202-.012.105.224.274.576.338.681h.006v.002zM46.11 28.701c-.048-.129-.137-.195-.274-.195-.139 0-.236.095-.236.203 0 .337.69.252.69.768 0 .305-.24.514-.6.514-.164 0-.301-.048-.366-.098.03-.105.05-.186.067-.289h.042c.024.131.13.246.313.246.177 0 .266-.105.266-.232 0-.342-.678-.252-.678-.767 0-.313.24-.486.51-.486.164 0 .287.042.373.11-.026.071-.042.125-.072.226h-.035zM46.811 28.764c0-.087 0-.167-.006-.2-.089 0-.28.014-.415.03.006-.034.012-.066.012-.098 0-.034-.004-.067-.012-.101.207.006.308.012.59.012.283 0 .383-.004.577-.012-.006.034-.012.067-.012.1 0 .035.004.067.012.1-.123-.017-.313-.03-.403-.03-.004.032-.004.112-.004.199v.568c0 .254.004.43.018.63-.05-.005-.111-.013-.186-.013-.074 0-.137.006-.185.012.014-.2.018-.375.018-.629v-.568h-.004zM47.754 29.024c0-.254-.005-.43-.019-.629.136.002.27.012.406.012.221 0 .413-.004.473-.012-.004.026-.008.054-.008.095 0 .048.004.068.008.103-.173-.012-.445-.029-.514-.029-.012.166-.012.329-.012.496.198-.004.343-.01.516-.018-.01.052-.012.073-.012.103 0 .024.004.046.012.093-.173-.014-.343-.02-.516-.02l-.002.29c0 .095.002.193.006.284.17 0 .345-.008.52-.03-.004.032-.008.054-.008.103 0 .048.004.07.008.096-.082-.002-.19-.012-.397-.012-.37 0-.431.006-.482.012.015-.2.019-.375.019-.629v-.308h.002zM49.053 28.931c-.048.343-.068.688-.09 1.03-.037-.006-.073-.012-.107-.012-.036 0-.07.004-.107.012.095-.522.17-1.044.234-1.566.032.006.06.012.093.012.03 0 .06-.004.09-.012.166.36.36.766.524 1.085.18-.34.365-.724.529-1.085.032.006.066.012.096.012s.065-.004.095-.012c.059.522.14 1.246.196 1.566-.06-.006-.123-.012-.184-.012-.06 0-.125.004-.19.012-.015-.316-.054-.701-.09-1.054h-.004c-.17.353-.339.701-.502 1.054-.014-.002-.03-.004-.042-.004-.014 0-.03.002-.043.004-.16-.342-.324-.687-.494-1.03h-.004zM51.53 28.701c-.048-.129-.135-.195-.274-.195s-.236.095-.236.203c0 .337.69.252.69.768 0 .305-.24.514-.601.514-.163 0-.3-.048-.365-.098.03-.105.05-.186.067-.289h.042c.024.131.129.246.312.246.178 0 .267-.105.267-.232 0-.342-.678-.252-.678-.767 0-.313.24-.486.512-.486.163 0 .287.042.373.11-.026.071-.042.125-.072.226h-.037zM45.292 34.73c0-.136.012-.282.036-.437.024-.153.067-.294.13-.423.062-.127.148-.234.261-.319.111-.084.254-.127.428-.127.173 0 .316.043.427.127.11.085.2.19.262.319.063.127.107.268.131.423.024.153.036.3.036.438 0 .137-.012.282-.036.437-.024.153-.066.294-.13.423-.063.127-.15.234-.263.319-.113.085-.254.127-.427.127-.174 0-.317-.042-.428-.127-.113-.085-.2-.19-.262-.319-.062-.127-.107-.268-.129-.423-.024-.153-.036-.298-.036-.437zm.383 0c0 .053.002.116.006.184.004.07.01.141.022.218.01.074.026.147.047.22.02.072.048.137.082.195.035.058.079.105.13.14.052.033.112.052.185.052.072 0 .135-.019.185-.053.053-.034.095-.08.13-.139.033-.058.062-.123.082-.196.02-.072.036-.145.046-.22.01-.074.018-.146.022-.217.004-.07.006-.131.006-.183 0-.079-.006-.178-.016-.29-.01-.116-.032-.227-.064-.333-.032-.107-.08-.198-.143-.272-.063-.075-.146-.113-.25-.113-.103 0-.186.036-.248.113-.063.074-.111.165-.143.272-.033.107-.055.217-.065.332-.01.115-.014.212-.014.29zM47.299 34.73c0-.136.012-.282.036-.437.024-.153.067-.294.13-.423.062-.127.148-.234.261-.319.111-.084.254-.127.428-.127.173 0 .316.043.427.127.113.085.2.19.262.319.062.127.105.268.129.423.024.153.036.3.036.438 0 .137-.012.282-.036.437-.024.153-.067.294-.129.423-.063.127-.15.234-.262.319-.111.085-.254.127-.428.127-.173 0-.316-.042-.427-.127-.113-.085-.2-.19-.262-.319-.062-.127-.107-.268-.129-.423-.024-.153-.036-.298-.036-.437zm.383 0c0 .053.002.116.006.184.004.07.01.141.022.218.01.074.026.147.046.22.02.072.049.137.083.195.034.058.079.105.131.14.053.033.113.052.186.052.072 0 .135-.019.185-.053.052-.034.095-.08.131-.139.034-.058.063-.123.083-.196.02-.072.036-.145.046-.22.01-.074.018-.146.022-.217.004-.07.006-.131.006-.183 0-.079-.006-.178-.016-.29-.01-.116-.032-.227-.064-.333-.033-.107-.081-.198-.143-.272-.063-.075-.146-.113-.25-.113-.103 0-.186.036-.248.113-.063.074-.111.165-.144.272-.032.107-.054.217-.064.332-.012.115-.018.212-.018.29zM50.131 33.886l-.387.333-.191-.242.617-.506h.322v2.522h-.36v-2.107z"/>
        <path fill="#000" d="M57.929 31.205H36.57V4H57.93v27.205zm-21.078-.282H57.65V4.282H36.852v26.64z"/>
        <path fill="#000" d="M43.597 9.32c.118 0 .213-.098.213-.216 0-.12-.096-.216-.213-.216-.12 0-.216.097-.216.216.002.119.099.215.216.215zM43.613 8.74c.12 0 .216-.096.216-.215s-.097-.214-.216-.214-.215.097-.215.214c.002.119.096.216.215.216zM43.817 8.218c.12 0 .216-.096.216-.215 0-.12-.097-.214-.216-.214s-.214.097-.214.214c-.002.119.095.215.214.215zM44.227 7.81c.12 0 .216-.097.216-.214 0-.12-.097-.216-.216-.216s-.213.097-.213.216c0 .117.094.213.213.213zM44.727 7.563c.12 0 .216-.096.216-.215 0-.12-.097-.216-.216-.216s-.213.097-.213.216.094.215.213.215zM45.343 7.52c.119 0 .213-.098.213-.217s-.096-.213-.213-.213c-.12 0-.216.096-.216.213.002.12.097.216.216.216zM45.918 7.678c.119 0 .215-.097.215-.216s-.096-.215-.215-.215c-.12 0-.214.096-.214.215-.002.121.095.216.214.216zM46.474 7.862c.12 0 .216-.097.216-.216s-.097-.214-.215-.214c-.12 0-.216.097-.216.214.002.119.096.216.215.216zM43.941 9.573c-.032-.115-.15-.185-.264-.15-.115.031-.18.152-.147.265.032.113.165.18.28.145M50.586 9.571c.034-.113.15-.185.264-.151.115.032.18.153.147.266-.032.115-.165.18-.28.147M50.928 9.315c-.12 0-.216-.097-.216-.214 0-.119.097-.215.216-.215s.215.096.215.215c0 .12-.096.214-.215.214zM50.911 8.739c-.119 0-.216-.097-.216-.216s.097-.216.216-.216.216.097.216.216-.097.216-.216.216zM50.708 8.217c-.12 0-.216-.097-.216-.216s.097-.214.216-.214.216.097.216.214c-.002.119-.097.216-.216.216zM50.298 7.807c-.12 0-.216-.097-.216-.214 0-.118.097-.215.216-.215s.215.097.215.215c0 .117-.096.214-.215.214zM49.796 7.561c-.12 0-.216-.096-.216-.215 0-.12.097-.216.216-.216s.215.097.215.216-.096.215-.215.215zM49.181 7.517c-.118 0-.215-.097-.215-.214 0-.119.097-.215.215-.215.12 0 .216.096.216.215 0 .117-.097.214-.215.214zM48.607 7.676c-.119 0-.215-.097-.215-.214 0-.119.096-.215.215-.215.12 0 .216.096.216.215 0 .12-.097.214-.216.214zM48.05 7.86c-.118 0-.215-.097-.215-.216s.097-.214.216-.214.213.097.213.214c0 .119-.096.216-.213.216z"/>
        <path stroke="#000" stroke-width=".464" d="M49.946 12.032l.39-.133-.138-.355m-5.69.464l-.325-.109.139-.411.185.52z"/>
        <path fill="#000" d="M49.07 11.403l-.46-.082c-.109-.02-.207.038-.224.129-.002.006 0 .058-.002.064 0 .004-.925-.05-.925-.05l.08-.08-.267-.269-.264.268.06.059s-.836.03-.838.018c-.014-.09-.113-.147-.222-.131l-.462.074c-.109.018-.183.107-.17.198.017.093.116.151.225.135l.463-.077c.077-.012.186-.034.166-.2-.002-.01.826-.031.826-.031l.218.217v.178h-.095c-1.574.008-2.568.492-2.568.492l-.115-.267.123-.366-.31-.107-.625-1.542.211-.391.014-.127s-.243-.652-.046-1.182c.292-.78 1.008-.844 1.413-.826.278.014.403.068.849.252.344.143.713.11.713.11v.285c-.02 0-.56-.02-1.032-.248 0 0-.623-.325-1.211.006-.02.012-.522.316-.516.93 0 0 0 .34.163.656l.067.107s-.144.182-.166.48c0 0-.016.165.03.369.012.052.16.018.174-.089.014-.107.012-.29-.02-.461l.032-.176.59 1.353-.153-.006s-.211-.292-.324-.339c-.113-.046-.174.026-.174.026s.375.736.964.266c0 0 .383-.324.044-.649 0 0-.205-.133-.28.059 0 0-.028.133.059.177 0 0-.232.037-.335-.216 0 0-.194-.386.248-.344 0 0 .264.09.191-.147 0 0-.118-.397.059-.65 0 0 .25.103.324.545 0 0 0 .221.206.074.34-.221.421.125.421.125.089.28-.23.436-.23.436.07-.095.003-.214.003-.214-.065-.119-.2-.012-.257.04l-.026.025-.076-.029s.028-.056.028-.098c0-.103-.079-.192-.194-.194-.114-.002-.193.1-.193.194 0 .09.064.193.193.193.13 0 .172-.105.172-.105l.07.04c-.052.412.224.57.224.57.222.179.47.152.458.154.244-.024.33-.074.33-.074.488-.319.367-.655.367-.655h-.18c-.294.102-.423.39-.423.39v.148h-.088V9.527h.102c.015.383.414.441.414.441h.191v-.232c-.058-.25-.355-.383-.355-.383h-.147v-.135h1.4v.135h-.148s-.294.133-.355.383v.236h.192s.397-.058.413-.441h.103v1.296h-.089v-.147s-.127-.289-.421-.391h-.2l-.032-.006c.03-.043.048-.079.05-.14.005-.119-.096-.215-.215-.215-.12 0-.214.096-.214.215 0 .12.087.216.214.214.105 0 .175-.084.175-.095 0 .004.024.025.024.025 0 .096.019.405.383.655 0 0 .071.048.3.072-.01 0 .239.027.46-.153 0 0 .276-.157.224-.568 0 0-.2-.218-.28-.067 0 0-.067.12 0 .214 0 0-.31-.133-.222-.413 0 0 .073-.37.413-.148.206.148.206-.072.206-.072.075-.442.325-.546.325-.546.177.25.058.649.058.649-.072.238.192.147.192.147.415-.093.248.345.248.345-.103.25-.337.215-.337.215.089-.044.058-.177.058-.177-.052-.14-.181-.107-.248-.087-.002-.006-.04-.04-.044-.038.014-.008.077-.057.079-.16 0-.116-.101-.193-.188-.193-.095 0-.203.063-.2.202.003.094.085.187.194.185.057-.002.087-.018.123-.038l.046.036-.042.032c-.34.325.045.65.045.65.588.471.963-.267.963-.267s-.06-.072-.173-.026c-.113.046-.325.339-.325.339l-.151.012.59-1.353.033.176c-.032.169-.032.354-.02.461.012.107.16.14.173.089.048-.206.03-.369.03-.369-.022-.296-.165-.48-.165-.48l.067-.107c.163-.314.163-.657.163-.657.008-.613-.494-.917-.516-.929-.589-.33-1.212-.006-1.212-.006-.471.228-.994.248-1.014.248v-.302s.351.052.696-.091c.445-.184.57-.238.848-.252.405-.02 1.121.046 1.413.826.198.528-.046 1.182-.046 1.182l.014.127.212.39-.625 1.539-.32.113.112.312-.096.32s-1.11-.453-2.653-.493c-.018 0 0-.178 0-.178l.2-.195s.913.058.913.062c.01.075.076.12.165.135l.461.085c.107.02.208-.038.226-.129.016-.099-.058-.188-.165-.208z"/>
        <path fill="#000" d="M47.582 7.561c.304-.207.262-.508.262-.508 0-.225-.131-.419-.319-.512l-.004-.014c-.125-.117-.113-.55-.113-.55s.065-.026.16.016c0 0 .133.05.133.137h.082v-.486h-.082c0 .087-.133.137-.133.137h-.035l-.123.002s-.044.018-.044-.1l.018-.16s.05-.133.137-.133v-.082h-.483v.082c.086 0 .139.133.139.133l.014.16v.008c0 .119-.053.092-.053.092l-.117-.002h-.042s-.133-.05-.133-.137h-.08v.484h.08c0-.087.133-.137.133-.137l.036-.016s.059-.008.123-.002c0 0 .004.445-.11.55l-.015.02c-.183.095-.31.287-.31.508 0 0-.028.373.27.502l.609.008.08-.41-.78-.003c-.072-.004-.133-.036-.133-.095 0-.054.02-.107.077-.127l.14-.006h.23v-.379s.013-.07.05-.07l.09.002s.034.024.034.068v.38h-.008.216l.149.005c.056.02.066.073.064.127-.006.093-.074.091-.129.095"/>
        <path fill="#000" d="M47.263 7.676s.123 0 .123.125c0 .115-.123.117-.123.117v.059s.123 0 .123.127c0 .102-.123.113-.123.113v.048s.123 0 .123.12c0 .118-.123.122-.123.122v.044s.123.01.123.121c.002.121-.123.121-.123.121v.06s.123.005.123.124c0 .112-.123.12-.123.12v.258h.457V7.551l-.457.004v.121zM47.263 7.676s-.123 0-.123.125c0 .115.123.117.123.117v.059s-.123 0-.123.127c0 .102.123.113.123.113v.048s-.123 0-.123.12c0 .114.123.122.123.122v.044s-.123.01-.123.121c-.002.121.123.121.123.121v.06s-.123.005-.123.124c0 .112.123.12.123.12v.258h-.457V7.551l.457.004v.121z"/>
        <path fill="#fff" d="M32.901 35.757H4.242V4.24h28.66v31.516z"/>
        <path fill="#000" d="M33.143 35.999H4v-32h29.143v32zm-28.66-.484H32.66V4.483H4.484v31.032z"/>
        <path fill="#000" d="M9.924 24.696c0-.367-.147-.665-.413-.897l-.319.27c.173.161.292.357.292.609 0 .48-.39.784-1.04.784-.64 0-1.032-.33-1.032-.796 0-.222.1-.391.248-.54l-.327-.27c-.191.179-.36.465-.36.822 0 .717.552 1.302 1.485 1.302.944 0 1.466-.566 1.466-1.284zm-.053-1.373v-1.76h-.427v1.254h-.84v-1.024h-.428v1.024h-.728v-1.211h-.427v1.715h2.85v.002zm0-2.342v-.506H8.757v-.436l1.114-.614v-.567l-1.189.68c-.117-.34-.379-.567-.814-.567-.635 0-.845.454-.845 1.044v.962h2.848v.004zm-1.515-.504h-.928v-.405c0-.387.113-.601.44-.601.322 0 .488.214.488.6v.406zm1.515-2.578v-.504h-2.42v-.825h-.428v2.151h.427v-.822h2.421zm0-1.803v-.504H7.023v.504h2.848zm0-1.227v-.506H8.682v-1.036h-.427v1.036h-.807v-1.216h-.427v1.72h2.85v.002zm0-2.222v-.506H7.023v.506h2.848zm0-1.227V9.66h-.427v1.254h-.84V9.89h-.428v1.024h-.728v-1.21h-.427v1.716h2.85zm0-2.343V8.29c0-.844-.491-1.359-1.437-1.359-.941 0-1.41.515-1.41 1.385v.762H9.87zm-.409-.504h-2.03v-.221c0-.575.305-.901 1.002-.901.702 0 1.028.326 1.028.9v.222zM30.134 25.911h-17.22V6.971h17.22v18.94z"/>
        <path fill="#fff" d="M23.824 21.827h-6.457V8.841H15.68v14.46h8.144v-1.474z"/>
        <path fill="#fff" d="M26.021 13.15c0 1.822-1.274 2.862-3.44 2.862h-1.926l5.951 7.291h2.058l-4.892-5.963c2.447-.215 3.927-1.886 3.927-4.193 0-2.697-1.819-4.31-4.893-4.31h-2.145v1.466h1.986c2.167.004 3.374 1.04 3.374 2.846z"/>
        <path fill="#000" d="M6.97 32.045h.46v-2.592h-.46v2.592zm.928-.332c.246.242.583.38.931.38.583 0 .932-.348.932-.767 0-.377-.214-.57-.522-.702l-.35-.147c-.213-.087-.412-.163-.412-.365 0-.19.159-.306.405-.306.221 0 .4.083.562.222l.238-.295c-.202-.201-.496-.328-.8-.328-.504 0-.867.316-.867.73 0 .38.266.582.522.689l.353.155c.238.099.405.168.405.381 0 .202-.163.333-.452.333-.242 0-.491-.12-.677-.295l-.268.315zm3.334.38c.673 0 1.141-.513 1.141-1.354 0-.836-.468-1.332-1.14-1.332-.678 0-1.146.494-1.146 1.332 0 .839.466 1.355 1.145 1.355zm0-.398c-.41 0-.673-.373-.673-.956 0-.578.266-.931.673-.931.405 0 .67.353.67.931 0 .583-.267.956-.67.956zm1.339.986h.308l.923-3.447h-.308l-.923 3.447zm1.64-.636h.46v-2.592h-.46v2.592zm1.107 0h1.597v-.387h-1.137v-.766h.931v-.387h-.931v-.663h1.098v-.387h-1.558v2.59zm1.978-1.288c0 .861.518 1.335 1.177 1.335.329 0 .599-.135.808-.377l-.254-.282c-.147.163-.316.258-.546.258-.431 0-.714-.357-.714-.948 0-.582.305-.94.73-.94.198 0 .345.084.48.215l.254-.287c-.163-.173-.42-.328-.738-.328-.667.004-1.197.508-1.197 1.354zm3.048 1.288h1.703v-.387h-.619c-.123 0-.288.017-.42.029.5-.526.916-.988.916-1.436 0-.467-.312-.772-.796-.772-.345 0-.575.143-.805.387l.255.254c.135-.15.296-.282.491-.282.27 0 .416.171.416.436 0 .385-.44.828-1.141 1.505v.266zm2.548 0h.463c.045-.983.148-1.51.738-2.243v-.276h-1.691v.383h1.193c-.49.68-.659 1.242-.703 2.136zm2.382.049c.524 0 .857-.468.857-1.32 0-.85-.332-1.297-.857-1.297-.524 0-.856.444-.856 1.296 0 .853.332 1.32.856 1.32zm0-.357c-.242 0-.42-.25-.42-.963 0-.714.177-.94.42-.94.246 0 .42.226.42.94 0 .713-.174.963-.42.963zm2.032.357c.524 0 .857-.468.857-1.32 0-.85-.332-1.297-.857-1.297-.524 0-.856.444-.856 1.296.002.853.334 1.32.856 1.32zm0-.357c-.242 0-.421-.25-.421-.963 0-.714.18-.94.421-.94.246 0 .42.226.42.94.002.713-.174.963-.42.963zm1.313.308h1.518v-.372h-.496v-2.15H29.3c-.16.096-.333.158-.583.206v.285h.464v1.657h-.562v.374z"/>
    </g>
    <defs>
        <clipPath id="clip0">
            <path fill="#fff" d="M0 0H61.999V40H0z"/>
        </clipPath>
    </defs>
</svg>
